<?xml version="1.0" encoding="UTF-8"?>
<svg xmlns="http://www.w3.org/2000/svg" width="169" height="96" viewBox="0 0 169 96" fill="none">
  <path fill-rule="evenodd" clip-rule="evenodd" d="M160.79 9.68C164.96 11.38 167.28 13.42 168.17 17.95C168.479 19.5376 168.339 63.1408 168.299 75.4767C168.292 77.5153 168.289 78.7 168.29 78.7C168.263 85.1463 156.623 88.0271 150.528 89.5356C149.768 89.7236 149.094 89.8904 148.54 90.04C138.72 92.69 128.58 94.14 118.43 94.66H118.42C108.57 95.4 98.06 95.74 84.35 95.75C74.9 95.75 62.47 95.62 50.06 94.73H50.05C40.85 94.05 28.77 92.8 16.91 89.23C16.3898 89.0734 15.8567 88.9175 15.3152 88.7593C9.18513 86.9676 1.99749 84.8667 0.610033 77.81C0.250033 75.95 0.500032 17.05 0.500032 17.05C0.500032 13.75 6.01003 10.52 8.56003 9.53C21.88 4.33 36.16 2.19 50.35 1.09H50.36C60.21 0.34 70.72 0.01 84.43 0C93.88 0.01 106.32 0.13 118.72 1.03H118.73C133.04 1.97 147.45 4.24 160.79 9.68ZM163.9 73.56V68.41C163.902 66.8703 163.903 65.3305 163.905 63.7905C163.909 58.3995 163.913 53.0058 163.96 47.6C163.641 47.61 163.371 47.62 163.102 47.6299L163.1 47.63C162.333 47.6581 161.611 47.6764 160.867 47.6952C160.554 47.7031 160.236 47.7111 159.91 47.72C159.905 49.685 159.908 57.5225 159.91 65.36C159.912 71.7421 159.914 78.1242 159.912 81.3354C160.32 81.1683 160.726 80.9992 161.13 80.83C161.234 80.7794 161.342 80.7367 161.45 80.6942C161.703 80.5937 161.956 80.4937 162.16 80.29C162.28 80.17 162.4 80.02 162.52 79.85C162.92 79.2 163.21 78.44 163.4 77.67C163.74 76.35 163.9 74.94 163.9 73.56ZM157.164 82.4111L157.2 47.79C156.78 47.795 156.41 47.8025 156.04 47.81C155.67 47.8175 155.3 47.825 154.88 47.83V83.2312C155.645 82.9669 156.406 82.6936 157.164 82.4111ZM153.36 83.7435V47.85C152.46 47.87 151.8 47.88 150.9 47.89V84.5188C151.723 84.2702 152.543 84.0118 153.36 83.7435ZM147.66 85.4353V47.94C146.86 47.945 146.093 47.9525 145.325 47.96C144.558 47.9675 143.79 47.975 142.99 47.98V86.5712C144.554 86.2238 146.111 85.8463 147.66 85.4353ZM139.825 87.2326C139.828 83.3048 139.824 76.0768 139.82 68.8488C139.815 59.5644 139.81 50.28 139.82 47.99C139.475 47.99 139.215 47.9925 138.955 47.995C138.695 47.9975 138.435 48 138.09 48C138.08 50.31 138.085 59.6119 138.09 68.9138C138.094 76.2928 138.098 83.6718 138.094 87.5604C138.672 87.4548 139.249 87.3455 139.825 87.2326ZM133.98 88.2532V48.02L133.552 48.0224C131.908 48.0315 130.385 48.04 128.71 48.04V88.9823C130.47 88.7654 132.228 88.5239 133.98 88.2532ZM126.52 89.2397V48.04C125.14 48.05 123.92 48.05 122.53 48.05V89.6495C123.861 89.5245 125.191 89.3886 126.52 89.2397ZM117.83 90.0481V48.06H115.81V90.1928C116.483 90.1468 117.157 90.0985 117.83 90.0481ZM107.911 90.6387C107.915 87.7622 107.912 78.627 107.91 69.4934C107.908 60.0158 107.905 50.5399 107.91 48.06H103.08C103.08 50.555 103.078 60.0419 103.075 69.5288C103.073 78.8125 103.07 88.0962 103.07 90.8277C104.684 90.7742 106.297 90.7117 107.911 90.6387ZM99.91 90.921V48.06H97.7V90.9735C98.4367 90.9577 99.1734 90.9402 99.91 90.921ZM88.39 91.0967C88.385 88.5905 88.3875 79.0906 88.39 69.5892C88.3925 60.0855 88.395 50.5801 88.39 48.07H85.79C85.795 50.58 85.7925 60.0844 85.79 69.5888C85.7875 79.0932 85.785 88.5975 85.79 91.1075C86.6567 91.1053 87.5234 91.1018 88.39 91.0967ZM75.47 91.0574C75.465 88.4926 75.4625 79.0407 75.46 69.5888C75.4575 60.0869 75.455 50.585 75.45 48.08H69.99V90.9677C71.8164 91.0065 73.6431 91.0358 75.47 91.0574ZM62.1405 90.7368C62.1452 87.9113 62.1476 78.7225 62.15 69.5338C62.1525 60.0519 62.155 50.57 62.16 48.08H59.23C59.225 50.56 59.2225 60.0369 59.22 69.5138C59.2176 78.6085 59.2152 87.7032 59.2106 90.6138C60.1871 90.6585 61.1637 90.6994 62.1405 90.7368ZM57.1507 90.514C57.1548 87.5445 57.1524 78.5191 57.15 69.4938C57.1475 60.0244 57.145 50.555 57.15 48.08H55.03C55.025 50.5449 55.0275 60.0058 55.03 69.4684C55.0324 78.4127 55.0348 87.3585 55.0308 90.3988C55.7373 90.4394 56.444 90.4777 57.1507 90.514ZM52.431 90.2396C52.4357 87.1157 52.4404 78.2772 52.445 69.4388C52.45 59.9844 52.455 50.53 52.46 48.07C51.2938 48.07 50.1551 48.0675 49.0176 48.065C47.8826 48.0625 46.7488 48.06 45.59 48.06C45.585 50.49 45.58 59.9144 45.575 69.3388C45.5705 77.8344 45.566 86.3301 45.5615 89.7021C47.1707 89.8499 48.7807 89.9812 50.39 90.1C51.0703 90.1488 51.7506 90.1953 52.431 90.2396ZM43.2014 89.4729C43.2045 86.0147 43.2023 77.6567 43.2 69.2988C43.1975 59.8869 43.195 50.475 43.2 48.06C41.975 48.055 40.78 48.0525 39.585 48.05C38.39 48.0475 37.195 48.045 35.97 48.04C35.965 50.405 35.9625 59.7669 35.96 69.1288C35.9579 77.0037 35.9558 84.8785 35.9522 88.5891C38.3614 88.9344 40.7796 89.2245 43.2014 89.4729ZM33.8524 88.2734C33.8559 84.494 33.858 76.7839 33.86 69.0738C33.8625 59.7319 33.865 50.39 33.87 48.04H32.46C32.455 50.375 32.4525 59.7044 32.45 69.0338C32.448 76.6283 32.446 84.2228 32.4426 88.0443C32.9121 88.123 33.3821 88.1993 33.8524 88.2734ZM28.8204 87.3866C28.8211 83.4705 28.8231 76.1872 28.825 68.9038C28.8275 59.6119 28.83 50.32 28.83 48.02C28.16 48.01 27.82 48.01 27.16 48.01C27.16 50.29 27.1575 59.5644 27.155 68.8388C27.1531 75.9667 27.1512 83.0947 27.1504 87.0473C27.7062 87.1643 28.2629 87.2773 28.8204 87.3866ZM22.46 85.9584V47.99C21.91 47.98 21.63 47.98 21.08 47.98V85.5966C21.5393 85.7204 21.9993 85.8409 22.46 85.9584ZM17.94 84.6958V47.97C17.465 47.965 17.055 47.9625 16.645 47.96C16.235 47.9575 15.825 47.955 15.35 47.95C15.35 51.5256 15.4582 76.4747 15.4908 83.9122C16.3038 84.1841 17.1203 84.4453 17.94 84.6958ZM12.6619 82.9165C12.6435 79.4201 12.5968 72.9682 12.55 66.5162C12.49 58.2456 12.43 49.975 12.43 47.93C11.995 47.925 11.62 47.9225 11.245 47.92C10.87 47.9175 10.495 47.915 10.06 47.91C10.06 49.905 10.1325 58.0875 10.205 66.27C10.2592 72.3787 10.3133 78.4875 10.3372 82.0216C11.1084 82.3304 11.8834 82.6287 12.6619 82.9165ZM6.25745 80.0239C5.69195 79.111 5.38729 78.0158 5.18003 76.94C4.91003 75.6 4.87003 74.18 4.89003 72.81V68.63V47.87C5.11503 47.87 5.28003 47.8725 5.44503 47.875C5.61003 47.8775 5.77503 47.88 6.00003 47.88C6.00003 49.7762 6.07013 57.8707 6.14017 65.9598C6.1857 71.2181 6.23122 76.4741 6.25745 80.0239Z" fill="white"></path>
</svg>
