<?xml version="1.0" encoding="UTF-8"?>
<svg xmlns="http://www.w3.org/2000/svg" width="187" height="111" viewBox="0 0 187 111" fill="none">
  <path d="M121.56 49.98C119.76 49.98 117.96 49.98 116.16 49.98C116.19 59.04 116.21 68.11 116.24 77.17C118.08 77.13 119.88 77.08 121.66 77.02C121.63 68 121.59 58.99 121.56 49.98Z" fill="black"></path>
  <path d="M126.96 49.98C126.06 49.98 125.16 49.98 124.26 49.98C124.29 58.96 124.33 67.95 124.36 76.93C125.27 76.9 126.17 76.87 127.07 76.83C127.04 67.88 127 58.93 126.96 49.98Z" fill="black"></path>
  <path d="M64.8293 49.98C63.9293 49.98 63.0293 49.98 62.1293 49.98C62.0993 58.87 62.0593 67.75 62.0293 76.64C62.9293 76.68 63.8293 76.71 64.7393 76.75C64.7693 67.82 64.7993 58.9 64.8293 49.98Z" fill="black"></path>
  <path d="M137.77 49.98C136.87 49.98 135.97 49.98 135.07 49.98C135.11 58.81 135.15 67.65 135.2 76.48C136.11 76.44 137.02 76.39 137.91 76.34C137.86 67.55 137.81 58.76 137.77 49.98Z" fill="black"></path>
  <path d="M132.37 49.98C131.47 49.98 130.57 49.98 129.67 49.98C129.71 58.9 129.75 67.81 129.79 76.73C130.71 76.69 131.6 76.65 132.5 76.61C132.45 67.73 132.41 58.85 132.37 49.98Z" fill="black"></path>
  <path d="M75.6391 49.98C73.9091 49.98 72.1791 49.98 70.4491 49.98C70.4191 58.97 70.3991 67.96 70.3691 76.95C72.0891 77.01 73.8191 77.06 75.5791 77.1C75.5991 68.06 75.6191 59.02 75.6391 49.98Z" fill="black"></path>
  <path d="M91.8496 49.98C91.0196 49.98 90.1896 49.98 89.3596 49.98C89.3496 59.1 89.3496 68.23 89.3496 77.35C90.1796 77.36 91.0196 77.37 91.8496 77.37C91.8396 68.24 91.8396 59.11 91.8496 49.98Z" fill="black"></path>
  <path d="M83.7409 49.98C82.9109 49.98 82.0809 49.98 81.2509 49.98C81.2409 59.06 81.2209 68.15 81.2109 77.23C82.0409 77.25 82.8809 77.26 83.7109 77.28C83.7209 68.18 83.7309 59.08 83.7409 49.98Z" fill="black"></path>
  <path d="M113.46 49.98C112.56 49.98 111.66 49.98 110.76 49.98C110.78 59.08 110.8 68.18 110.82 77.28C111.73 77.26 112.63 77.25 113.53 77.23C113.51 68.14 113.48 59.06 113.46 49.98Z" fill="black"></path>
  <path d="M151.28 49.98C150.38 49.98 149.48 49.98 148.58 49.98C148.63 58.55 148.67 67.12 148.72 75.69C149.64 75.63 150.53 75.56 151.42 75.5C151.37 66.99 151.32 58.48 151.28 49.98Z" fill="black"></path>
  <path d="M102.691 77.37C102.681 68.24 102.671 59.1 102.661 49.97C100.931 49.97 99.2007 49.97 97.4707 49.97C97.4807 59.11 97.4807 68.25 97.4907 77.39C99.2307 77.39 100.971 77.39 102.691 77.37Z" fill="black"></path>
  <path d="M186.6 71.89C186.6 64.59 186.6 57.28 186.6 49.98C184.73 49.98 182.86 49.98 180.99 49.98C181 57.53 181.02 65.08 181.03 72.64C184.44 72.21 186.29 71.92 186.37 71.91C186.45 71.89 186.52 71.89 186.6 71.89Z" fill="black"></path>
  <path d="M0 74.8899C0 81.6299 0 84.6199 0 91.9399C0 92.2599 0 92.5799 0 92.8999C0.03 92.9099 0.0499866 92.9099 0.0799866 92.9199C0.529987 95.9599 3.01999 98.9099 6.04999 99.6899C63.3 114.27 123.3 114.27 180.55 99.6899C183.9 98.8199 186.6 95.3199 186.6 91.9399C186.6 88.7299 186.6 90.5099 186.6 87.2999C186.6 83.1599 186.6 79.0299 186.6 74.8899C183.57 75.3499 149.01 80.3899 97.47 80.3899C45.57 80.3899 3.16 75.2799 0 74.8899Z" fill="black"></path>
  <path d="M2.67999 72.19C2.68999 64.79 2.69 57.38 2.7 49.98C1.8 49.98 0.9 49.98 0 49.98C0 57.28 0 64.59 0 71.89C0.06 71.89 0.129987 71.89 0.189987 71.89C0.249987 71.9 1.10999 72.01 2.67999 72.19Z" fill="black"></path>
  <path d="M156.68 49.98C155.78 49.98 154.88 49.98 153.98 49.98C154.02 58.42 154.07 66.86 154.11 75.3C155.03 75.23 155.93 75.16 156.81 75.09C156.76 66.72 156.72 58.35 156.68 49.98Z" fill="black"></path>
  <path d="M162.081 49.98C161.181 49.98 160.281 49.98 159.381 49.98C159.421 58.28 159.461 66.57 159.501 74.87C160.421 74.79 161.321 74.71 162.201 74.64C162.161 66.41 162.121 58.2 162.081 49.98Z" fill="black"></path>
  <path d="M8.09937 49.98C7.19937 49.98 6.29937 49.98 5.39937 49.98C5.38937 57.48 5.37937 64.99 5.35938 72.49C6.16938 72.58 7.05936 72.67 8.04936 72.78C8.06936 65.18 8.08937 57.58 8.09937 49.98Z" fill="black"></path>
  <path d="M178.501 49.98C176.631 49.98 174.761 49.98 172.891 49.98C172.921 57.85 172.941 65.71 172.971 73.58C175.061 73.35 176.931 73.14 178.551 72.94C178.531 65.28 178.511 57.63 178.501 49.98Z" fill="black"></path>
  <path d="M45.9208 49.98C45.0908 49.98 44.2608 49.98 43.4308 49.98C43.3908 58.54 43.3408 67.11 43.3008 75.67C44.1208 75.72 44.9608 75.77 45.8008 75.82C45.8408 67.2 45.8808 58.59 45.9208 49.98Z" fill="black"></path>
  <path d="M27.0096 49.98C24.2396 49.98 21.4696 49.98 18.6996 49.98C18.6696 57.92 18.6296 65.86 18.5996 73.8C21.1396 74.03 23.9096 74.27 26.8896 74.5C26.9296 66.33 26.9696 58.15 27.0096 49.98Z" fill="black"></path>
  <path d="M16.2093 49.98C14.3393 49.98 12.4693 49.98 10.5993 49.98C10.5793 57.66 10.5593 65.35 10.5293 73.03C12.2093 73.2 14.0793 73.38 16.1193 73.57C16.1493 65.71 16.1793 57.84 16.2093 49.98Z" fill="black"></path>
  <path d="M59.4301 49.98C57.6301 49.98 55.8302 49.98 54.0302 49.98C53.9902 58.74 53.9502 67.5 53.9102 76.27C55.6802 76.36 57.4902 76.45 59.3202 76.53C59.3602 67.67 59.3901 58.82 59.4301 49.98Z" fill="black"></path>
  <path d="M37.82 49.98C36.09 49.98 34.36 49.98 32.63 49.98C32.59 58.3 32.54 66.62 32.5 74.94C34.18 75.06 35.91 75.19 37.69 75.31C37.73 66.86 37.77 58.42 37.82 49.98Z" fill="black"></path>
  <path d="M10.4094 82.4702C9.49936 84.4102 8.57937 86.3202 7.66937 88.2002C7.66937 89.3602 7.65936 90.5302 7.65936 91.6902C7.20936 91.6002 6.75937 91.5202 6.31937 91.4302C6.31937 90.2702 6.32936 89.1202 6.32936 87.9602C5.42936 85.7602 4.51938 83.5902 3.60938 81.4302C4.10938 81.5102 4.60938 81.5902 5.10938 81.6702C5.73937 83.3302 6.36937 84.9902 6.99937 86.6702C7.63937 85.2102 8.27937 83.7402 8.91937 82.2502C9.41937 82.3302 9.90936 82.4002 10.4094 82.4702Z" fill="#00AEEF"></path>
  <path d="M11.84 92.1102C11.35 91.6902 10.96 91.1502 10.67 90.4902C10.39 89.8402 10.25 89.1102 10.25 88.3202C10.25 87.5402 10.4 86.8702 10.69 86.3002C10.98 85.7402 11.38 85.3302 11.89 85.0802C12.4 84.8302 12.96 84.7502 13.59 84.8402C14.21 84.9302 14.78 85.1802 15.28 85.5902C15.78 86.0002 16.18 86.5302 16.47 87.2002C16.76 87.8702 16.9 88.6002 16.9 89.4102C16.9 90.2202 16.74 90.9002 16.44 91.4802C16.14 92.0502 15.73 92.4602 15.21 92.7102C14.69 92.9602 14.12 93.0202 13.5 92.9102C12.89 92.8002 12.33 92.5302 11.84 92.1102ZM14.48 91.3802C14.78 91.2302 15.03 90.9802 15.22 90.6102C15.41 90.2402 15.51 89.7702 15.51 89.2002C15.51 88.6302 15.42 88.1302 15.24 87.7102C15.06 87.2902 14.82 86.9502 14.52 86.7102C14.22 86.4602 13.9 86.3202 13.55 86.2602C13.2 86.2102 12.88 86.2602 12.58 86.4102C12.28 86.5602 12.05 86.8202 11.87 87.1802C11.7 87.5402 11.61 88.0002 11.6 88.5702C11.6 89.4102 11.77 90.0802 12.13 90.6002C12.49 91.1202 12.94 91.4302 13.48 91.5202C13.85 91.5702 14.18 91.5302 14.48 91.3802Z" fill="#00AEEF"></path>
  <path d="M23.4102 86.3503C23.4002 89.0503 23.3802 91.7503 23.3702 94.4503C22.9202 94.3803 22.4702 94.3103 22.0202 94.2403C22.0202 93.9203 22.0202 93.6103 22.0202 93.2903C21.8102 93.5903 21.5202 93.8003 21.1802 93.9403C20.8302 94.0703 20.4702 94.1103 20.0802 94.0403C19.5702 93.9603 19.1102 93.7503 18.7002 93.4203C18.2902 93.0903 17.9802 92.6503 17.7502 92.1103C17.5202 91.5603 17.4102 90.9303 17.4102 90.2103C17.4202 88.6503 17.4202 87.1003 17.4302 85.5403C17.8802 85.6003 18.3202 85.6703 18.7702 85.7303C18.7602 87.2103 18.7602 88.6903 18.7502 90.1703C18.7502 90.8803 18.8902 91.4503 19.1802 91.8803C19.4702 92.3103 19.8702 92.5603 20.3702 92.6403C20.8802 92.7203 21.2802 92.5903 21.5802 92.2503C21.8802 91.9103 22.0302 91.3803 22.0302 90.6603C22.0402 89.1603 22.0402 87.6603 22.0502 86.1703C22.5102 86.2303 22.9602 86.2903 23.4102 86.3503Z" fill="#00AEEF"></path>
  <path d="M26.5687 86.9702C26.8987 86.7802 27.2887 86.7102 27.7387 86.7702C27.7387 87.3602 27.7287 87.9402 27.7287 88.5302C27.6187 88.5202 27.4987 88.5002 27.3887 88.4902C26.8587 88.4202 26.4587 88.5402 26.1787 88.8402C25.8987 89.1402 25.7687 89.7002 25.7587 90.5302C25.7487 91.9602 25.7487 93.3902 25.7387 94.8302C25.2887 94.7602 24.8387 94.6902 24.3887 94.6202C24.3987 91.9102 24.4187 89.2002 24.4287 86.4902C24.8787 86.5502 25.3287 86.6102 25.7787 86.6602C25.7787 87.0602 25.7787 87.4503 25.7687 87.8503C25.9687 87.4503 26.2387 87.1602 26.5687 86.9702Z" fill="#00AEEF"></path>
  <path d="M30.6487 87.5302C31.0287 86.7602 31.5487 86.1901 32.1987 85.8001C32.8487 85.4101 33.5587 85.2602 34.3287 85.3402C35.2087 85.4302 35.9987 85.7902 36.6787 86.4102C37.3587 87.0302 37.8587 87.8702 38.1587 88.9302C37.6187 88.8702 37.0687 88.8202 36.5287 88.7602C36.3187 88.1802 36.0187 87.7302 35.6387 87.4102C35.2587 87.0902 34.8187 86.9101 34.3187 86.8601C33.7687 86.8001 33.2787 86.9002 32.8487 87.1702C32.4187 87.4402 32.0787 87.8402 31.8387 88.4002C31.5887 88.9502 31.4687 89.6202 31.4687 90.3902C31.4687 91.1602 31.5787 91.8602 31.8187 92.4702C32.0587 93.0902 32.3887 93.5802 32.8187 93.9502C33.2487 94.3202 33.7387 94.5502 34.2787 94.6202C34.7787 94.6802 35.2187 94.6002 35.6087 94.3802C35.9887 94.1502 36.2887 93.7701 36.5087 93.2401C37.0487 93.3001 37.5987 93.3702 38.1387 93.4302C37.8187 94.4202 37.3187 95.1401 36.6287 95.6101C35.9387 96.0701 35.1487 96.2502 34.2687 96.1302C33.4887 96.0302 32.7787 95.7002 32.1387 95.1602C31.4987 94.6102 30.9887 93.9101 30.6187 93.0501C30.2487 92.1901 30.0587 91.2502 30.0687 90.2302C30.0687 89.1902 30.2687 88.2902 30.6487 87.5302Z" fill="#EC008C"></path>
  <path d="M44.9292 88.7101C44.9192 91.5701 44.8992 94.4301 44.8892 97.2901C44.4392 97.2401 43.9792 97.1901 43.5292 97.1401C43.5292 96.8001 43.5293 96.4701 43.5393 96.1301C43.3193 96.4601 43.0392 96.7001 42.6892 96.8701C42.3392 97.0301 41.9692 97.0901 41.5792 97.0501C41.0592 96.9901 40.5992 96.8001 40.1892 96.4701C39.7792 96.1401 39.4592 95.7001 39.2292 95.1301C38.9992 94.5601 38.8792 93.8901 38.8892 93.1201C38.8992 91.4601 38.9092 89.8001 38.9192 88.1401C39.3692 88.1901 39.8192 88.2301 40.2692 88.2701C40.2592 89.8501 40.2493 91.4301 40.2493 93.0001C40.2493 93.7601 40.3892 94.3601 40.6792 94.8001C40.9692 95.2401 41.3692 95.4901 41.8792 95.5401C42.3892 95.6001 42.7892 95.4401 43.0992 95.0601C43.3992 94.6801 43.5492 94.1101 43.5592 93.3501C43.5692 91.7601 43.5792 90.1701 43.5792 88.5801C44.0192 88.6301 44.4692 88.6701 44.9292 88.7101Z" fill="#EC008C"></path>
  <path d="M46.8986 97.2802C46.4886 96.9902 46.1686 96.6302 45.9286 96.1802C45.6886 95.7302 45.5686 95.2502 45.5586 94.7302C46.0286 94.7802 46.4986 94.8202 46.9686 94.8702C46.9886 95.2402 47.1186 95.5602 47.3686 95.8202C47.6086 96.0902 47.9186 96.2402 48.2786 96.2802C48.6586 96.3202 48.9586 96.2502 49.1686 96.0802C49.3786 95.9102 49.4886 95.6702 49.4886 95.3602C49.4886 95.0302 49.3686 94.7802 49.1386 94.6002C48.9086 94.4202 48.5286 94.2102 48.0186 93.9802C47.5286 93.7602 47.1286 93.5502 46.8186 93.3502C46.5086 93.1502 46.2386 92.8702 46.0186 92.5102C45.7986 92.1402 45.6786 91.6802 45.6886 91.1202C45.6886 90.6602 45.7986 90.2502 46.0086 89.8902C46.2186 89.5302 46.5186 89.2502 46.8986 89.0702C47.2886 88.8802 47.7286 88.8102 48.2286 88.8502C48.9786 88.9102 49.5786 89.2102 50.0386 89.7402C50.4986 90.2802 50.7386 90.9802 50.7686 91.8402C50.3186 91.8002 49.8586 91.7602 49.4086 91.7202C49.3886 91.3302 49.2686 91.0102 49.0586 90.7602C48.8486 90.5102 48.5586 90.3702 48.1886 90.3402C47.8286 90.3102 47.5586 90.3702 47.3686 90.5302C47.1786 90.6902 47.0786 90.9202 47.0786 91.2102C47.0786 91.4402 47.1386 91.6402 47.2686 91.8102C47.3986 91.9802 47.5486 92.1102 47.7286 92.2202C47.9086 92.3302 48.1786 92.4602 48.5386 92.6302C49.0186 92.8402 49.4086 93.0502 49.7186 93.2502C50.0286 93.4502 50.2886 93.7302 50.5086 94.0802C50.7286 94.4402 50.8386 94.8902 50.8486 95.4502C50.8486 95.9402 50.7386 96.3802 50.5286 96.7502C50.3186 97.1202 50.0286 97.4002 49.6486 97.5802C49.2686 97.7602 48.8286 97.8302 48.3186 97.7802C47.7686 97.7402 47.3086 97.5702 46.8986 97.2802Z" fill="#EC008C"></path>
  <path d="M53.1288 90.8601C53.1188 92.4701 53.1187 94.0801 53.1087 95.6901C53.1087 96.0201 53.1687 96.2601 53.2787 96.4101C53.3887 96.5601 53.5887 96.6501 53.8687 96.6801C54.1487 96.7001 54.4287 96.7301 54.7087 96.7501C54.7087 97.2501 54.7087 97.7501 54.6987 98.2601C54.3387 98.2301 53.9787 98.2001 53.6187 98.1701C52.9987 98.1201 52.5387 97.8801 52.2087 97.4701C51.8787 97.0601 51.7187 96.4301 51.7287 95.5801C51.7387 93.9701 51.7487 92.3701 51.7487 90.7601C51.4887 90.7401 51.2287 90.7201 50.9688 90.7001C50.9688 90.2101 50.9687 89.7201 50.9787 89.2301C51.2387 89.2501 51.4987 89.2701 51.7587 89.2901C51.7587 88.5701 51.7687 87.8501 51.7687 87.1301C52.2287 87.1601 52.6887 87.2001 53.1387 87.2301C53.1387 87.9501 53.1288 88.6701 53.1288 89.4001C53.6588 89.4401 54.1987 89.4801 54.7287 89.5201C54.7287 90.0101 54.7287 90.5001 54.7188 91.0001C54.1988 90.9401 53.6588 90.9001 53.1288 90.8601Z" fill="#EC008C"></path>
  <path d="M56.35 97.9601C55.85 97.5401 55.46 96.9801 55.17 96.2701C54.89 95.5601 54.75 94.7601 54.75 93.8601C54.75 92.9701 54.9 92.1901 55.2 91.5301C55.5 90.8601 55.9 90.3601 56.41 90.0301C56.92 89.6901 57.49 89.5501 58.12 89.5901C58.75 89.6301 59.32 89.8501 59.83 90.2601C60.34 90.6701 60.74 91.2201 61.03 91.9401C61.32 92.6501 61.47 93.4601 61.46 94.3601C61.46 95.2601 61.3 96.0401 61 96.7201C60.69 97.3901 60.28 97.9001 59.75 98.2401C59.23 98.5801 58.65 98.7201 58.02 98.6801C57.42 98.6101 56.85 98.3801 56.35 97.9601ZM59.03 96.8201C59.34 96.6201 59.59 96.3001 59.78 95.8701C59.97 95.4401 60.07 94.9001 60.07 94.2601C60.07 93.6201 59.98 93.0701 59.8 92.6201C59.62 92.1701 59.38 91.8201 59.07 91.5701C58.77 91.3301 58.44 91.1902 58.09 91.1702C57.74 91.1502 57.41 91.2401 57.11 91.4401C56.81 91.6401 56.57 91.9601 56.39 92.3801C56.21 92.8101 56.12 93.3402 56.12 93.9802C56.12 94.9202 56.29 95.6701 56.65 96.2101C57.01 96.7501 57.47 97.0501 58.02 97.0901C58.4 97.1101 58.73 97.0201 59.03 96.8201Z" fill="#EC008C"></path>
  <path d="M71.4595 90.7202C71.8695 91.0302 72.1895 91.4702 72.4295 92.0602C72.6595 92.6402 72.7795 93.3402 72.7795 94.1502C72.7795 95.9102 72.7695 97.6702 72.7695 99.4302C72.3195 99.4102 71.8695 99.3902 71.4095 99.3702C71.4095 97.7102 71.4195 96.0402 71.4195 94.3802C71.4195 93.5802 71.2795 92.9602 70.9795 92.5202C70.6895 92.0802 70.2795 91.8502 69.7695 91.8302C69.2595 91.8102 68.8495 92.0002 68.5495 92.4102C68.2495 92.8202 68.0995 93.4302 68.0895 94.2202C68.0795 95.8802 68.0795 97.5402 68.0695 99.2002C67.6195 99.1702 67.1695 99.1502 66.7195 99.1202C66.7295 97.4602 66.7295 95.8102 66.7395 94.1502C66.7395 93.3502 66.5995 92.7402 66.2995 92.2902C66.0095 91.8502 65.5995 91.6202 65.0895 91.5902C64.5795 91.5602 64.1695 91.7502 63.8695 92.1602C63.5695 92.5702 63.4195 93.1702 63.4095 93.9602C63.3995 95.6102 63.3995 97.2602 63.3895 98.9102C62.9295 98.8802 62.4795 98.8502 62.0195 98.8202C62.0295 95.8702 62.0395 92.9302 62.0495 89.9802C62.4995 90.0102 62.9595 90.0302 63.4095 90.0602C63.4095 90.4002 63.4095 90.7402 63.4095 91.0702C63.6295 90.7202 63.9195 90.4502 64.2595 90.2602C64.5995 90.0802 64.9695 89.9902 65.3595 90.0102C65.8895 90.0402 66.3595 90.2102 66.7695 90.5302C67.1795 90.8502 67.4995 91.3002 67.7195 91.8802C67.9195 91.3502 68.2295 90.9402 68.6595 90.6402C69.0795 90.3402 69.5395 90.2002 70.0295 90.2202C70.5795 90.2502 71.0495 90.4202 71.4595 90.7202Z" fill="#EC008C"></path>
  <path d="M81.5986 93.4102C81.3986 93.9202 81.0786 94.3303 80.6386 94.6403C80.1986 94.9503 79.6386 95.0903 78.9486 95.0703C78.4486 95.0603 77.9386 95.0402 77.4386 95.0202C77.4386 96.5502 77.4286 98.0802 77.4286 99.6102C76.9686 99.5902 76.5186 99.5802 76.0586 99.5602C76.0686 95.7902 76.0786 92.0202 76.0886 88.2502C77.0486 88.2802 78.0086 88.3102 78.9686 88.3302C79.6086 88.3502 80.1486 88.5103 80.5886 88.8203C81.0286 89.1303 81.3586 89.5402 81.5786 90.0602C81.7986 90.5802 81.9086 91.1502 81.9086 91.7802C81.8986 92.3602 81.7986 92.9002 81.5986 93.4102ZM80.1186 93.1003C80.3786 92.7903 80.4986 92.3402 80.5086 91.7502C80.5086 90.5102 79.9986 89.8803 78.9686 89.8503C78.4686 89.8403 77.9586 89.8202 77.4586 89.8102C77.4586 91.0402 77.4486 92.2803 77.4486 93.5103C77.9486 93.5303 78.4586 93.5402 78.9586 93.5502C79.4686 93.5702 79.8586 93.4203 80.1186 93.1003Z" fill="#FFF200"></path>
  <path d="M82.3887 92.8203C82.6687 92.1303 83.0387 91.6003 83.5187 91.2203C83.9987 90.8403 84.5188 90.6603 85.0988 90.6703C85.6188 90.6803 86.0687 90.8203 86.4587 91.1103C86.8487 91.3903 87.1587 91.7403 87.3887 92.1603C87.3887 91.7203 87.3887 91.2903 87.3887 90.8503C87.8487 90.8503 88.3087 90.8603 88.7687 90.8603C88.7687 93.8703 88.7687 96.8703 88.7587 99.8803C88.2987 99.8803 87.8388 99.8703 87.3788 99.8603C87.3788 99.4103 87.3788 98.9703 87.3788 98.5203C87.1488 98.9403 86.8287 99.2903 86.4287 99.5703C86.0287 99.8503 85.5687 99.9803 85.0587 99.9703C84.4887 99.9603 83.9687 99.7503 83.4987 99.3403C83.0287 98.9303 82.6488 98.3703 82.3788 97.6503C82.0988 96.9303 81.9688 96.1203 81.9688 95.2103C81.9688 94.3103 82.1087 93.5103 82.3887 92.8203ZM87.0988 93.7203C86.9088 93.2603 86.6687 92.9103 86.3587 92.6603C86.0587 92.4203 85.7288 92.2903 85.3788 92.2903C85.0288 92.2803 84.6987 92.4003 84.3987 92.6303C84.0987 92.8603 83.8488 93.2003 83.6588 93.6503C83.4688 94.1003 83.3788 94.6303 83.3788 95.2503C83.3788 95.8703 83.4688 96.4203 83.6588 96.8903C83.8488 97.3603 84.0887 97.7203 84.3987 97.9803C84.7087 98.2303 85.0288 98.3603 85.3788 98.3703C85.7288 98.3803 86.0587 98.2603 86.3687 98.0303C86.6687 97.7903 86.9187 97.4503 87.1087 96.9803C87.2987 96.5203 87.3887 95.9803 87.3887 95.3603C87.3787 94.7203 87.2888 94.1803 87.0988 93.7203Z" fill="#FFF200"></path>
  <path d="M89.7403 92.9102C90.0203 92.2102 90.4003 91.6702 90.8903 91.2902C91.3803 90.9102 91.9403 90.7202 92.5703 90.7202C93.3703 90.7202 94.0303 90.9802 94.5603 91.5002C95.0803 92.0202 95.4403 92.7602 95.6203 93.7202C95.1303 93.7202 94.6403 93.7202 94.1403 93.7202C94.0203 93.2702 93.8303 92.9202 93.5603 92.6702C93.3003 92.4202 92.9603 92.2902 92.5603 92.2902C92.0003 92.2902 91.5503 92.5602 91.2203 93.1002C90.8903 93.6402 90.7203 94.3902 90.7203 95.3702C90.7203 96.3402 90.8803 97.1002 91.2203 97.6502C91.5503 98.2002 92.0003 98.4702 92.5603 98.4702C93.3503 98.4702 93.8803 98.0002 94.1303 97.0402C94.6203 97.0402 95.1103 97.0402 95.6103 97.0402C95.4203 97.9602 95.0603 98.6902 94.5303 99.2302C94.0003 99.7702 93.3403 100.04 92.5603 100.04C91.9303 100.04 91.3703 99.8402 90.8803 99.4502C90.3903 99.0602 90.0103 98.5102 89.7303 97.8102C89.4503 97.1002 89.3203 96.2902 89.3203 95.3602C89.3303 94.4302 89.4703 93.6202 89.7403 92.9102Z" fill="#FFF200"></path>
  <path d="M98.8192 95.3602C99.8392 96.8502 100.859 98.3302 101.869 99.8102C101.249 99.8202 100.639 99.8302 100.019 99.8402C99.1992 98.5602 98.3892 97.2802 97.5692 95.9902C97.5692 97.2802 97.5692 98.5802 97.5692 99.8702C97.1092 99.8702 96.6592 99.8802 96.1992 99.8802C96.1992 95.8402 96.1992 91.8003 96.1992 87.7603C96.6592 87.7603 97.1092 87.7502 97.5692 87.7502C97.5692 90.1002 97.5692 92.4403 97.5692 94.7903C98.3692 93.4703 99.1692 92.1403 99.9692 90.8203C100.599 90.8103 101.229 90.8003 101.869 90.7903C100.849 92.3203 99.8392 93.8402 98.8192 95.3602Z" fill="#FFF200"></path>
  <path d="M102.029 92.8601C102.299 92.1601 102.679 91.6101 103.159 91.2101C103.629 90.8101 104.159 90.6101 104.739 90.6001C105.259 90.5901 105.709 90.7201 106.099 90.9901C106.489 91.2601 106.799 91.6001 107.029 92.0001C107.029 91.5601 107.029 91.1301 107.029 90.6901C107.489 90.6801 107.949 90.6701 108.409 90.6501C108.419 93.6401 108.419 96.6401 108.429 99.6301C107.969 99.6501 107.509 99.6602 107.049 99.6702C107.049 99.2202 107.049 98.7801 107.049 98.3301C106.819 98.7601 106.499 99.1202 106.099 99.4202C105.699 99.7102 105.239 99.8701 104.729 99.8801C104.159 99.8901 103.639 99.7101 103.169 99.3201C102.699 98.9301 102.319 98.3801 102.049 97.6801C101.769 96.9701 101.629 96.1601 101.629 95.2601C101.619 94.3701 101.749 93.5601 102.029 92.8601ZM106.739 93.5801C106.549 93.1301 106.309 92.7901 105.999 92.5501C105.699 92.3201 105.369 92.2101 105.019 92.2101C104.669 92.2201 104.339 92.3401 104.039 92.5801C103.739 92.8201 103.489 93.1701 103.299 93.6201C103.109 94.0801 103.019 94.6102 103.019 95.2302C103.019 95.8502 103.119 96.3901 103.299 96.8601C103.489 97.3201 103.739 97.6801 104.049 97.9101C104.359 98.1501 104.679 98.2601 105.029 98.2501C105.379 98.2401 105.709 98.1101 106.009 97.8701C106.309 97.6201 106.559 97.2601 106.749 96.8001C106.939 96.3301 107.029 95.7902 107.029 95.1702C107.029 94.5602 106.929 94.0301 106.739 93.5801Z" fill="#FFF200"></path>
  <path d="M113.44 90.7702C113.84 91.0302 114.15 91.3602 114.37 91.7602C114.37 91.3302 114.37 90.8902 114.37 90.4602C114.83 90.4402 115.29 90.4202 115.75 90.4002C115.76 93.4202 115.77 96.4502 115.78 99.4702C115.78 100.29 115.66 101.03 115.4 101.68C115.15 102.34 114.78 102.86 114.29 103.25C113.81 103.64 113.23 103.85 112.56 103.89C111.66 103.93 110.92 103.68 110.32 103.13C109.73 102.58 109.39 101.82 109.31 100.85C109.76 100.83 110.21 100.82 110.67 100.8C110.78 101.26 111 101.63 111.34 101.9C111.68 102.17 112.09 102.3 112.56 102.28C113.11 102.26 113.56 102.01 113.9 101.54C114.24 101.07 114.41 100.4 114.41 99.5402C114.41 99.0402 114.41 98.5402 114.41 98.0502C114.18 98.4802 113.87 98.8502 113.47 99.1602C113.07 99.4602 112.63 99.6302 112.12 99.6502C111.54 99.6702 111.02 99.5002 110.54 99.1202C110.06 98.7402 109.69 98.2002 109.41 97.5002C109.13 96.8002 108.99 96.0002 108.99 95.0902C108.99 94.1902 109.12 93.3902 109.4 92.6802C109.67 91.9802 110.05 91.4302 110.52 91.0202C110.99 90.6202 111.52 90.4102 112.09 90.3902C112.59 90.3802 113.05 90.5102 113.44 90.7702ZM114.1 93.3302C113.91 92.8802 113.66 92.5502 113.36 92.3202C113.06 92.0902 112.73 91.9902 112.38 92.0002C112.03 92.0102 111.7 92.1402 111.4 92.3802C111.1 92.6202 110.85 92.9702 110.66 93.4302C110.47 93.8902 110.38 94.4202 110.38 95.0402C110.38 95.6602 110.48 96.2002 110.67 96.6602C110.86 97.1202 111.11 97.4702 111.42 97.7002C111.73 97.9302 112.05 98.0402 112.4 98.0302C112.75 98.0202 113.08 97.8802 113.38 97.6302C113.68 97.3802 113.93 97.0202 114.11 96.5502C114.3 96.0802 114.39 95.5402 114.39 94.9202C114.38 94.3102 114.28 93.7802 114.1 93.3302Z" fill="#FFF200"></path>
  <path d="M116.83 88.8402C116.66 88.6202 116.58 88.3402 116.58 88.0102C116.58 87.6802 116.66 87.3902 116.83 87.1602C117 86.9302 117.2 86.8002 117.45 86.7902C117.69 86.7802 117.89 86.8802 118.06 87.1102C118.23 87.3302 118.31 87.6002 118.31 87.9402C118.31 88.2702 118.23 88.5602 118.06 88.7902C117.89 89.0202 117.69 89.1502 117.45 89.1602C117.21 89.1602 117 89.0602 116.83 88.8402ZM118.13 90.3002C118.14 93.2702 118.15 96.2402 118.16 99.2102C117.7 99.2402 117.25 99.2602 116.79 99.2802C116.78 96.3102 116.77 93.3302 116.76 90.3602C117.22 90.3402 117.68 90.3202 118.13 90.3002Z" fill="#FFF200"></path>
  <path d="M123.88 90.3003C124.29 90.5703 124.61 90.9703 124.85 91.5303C125.08 92.0803 125.2 92.7603 125.21 93.5603C125.22 95.3003 125.22 97.0303 125.23 98.7703C124.78 98.8003 124.33 98.8303 123.88 98.8603C123.87 97.2103 123.87 95.5603 123.86 93.9103C123.86 93.1203 123.71 92.5203 123.41 92.1103C123.11 91.7003 122.71 91.5203 122.2 91.5403C121.69 91.5703 121.28 91.8003 120.99 92.2403C120.69 92.6803 120.54 93.3003 120.55 94.0903C120.56 95.7503 120.56 97.4003 120.57 99.0603C120.11 99.0903 119.66 99.1103 119.2 99.1403C119.19 96.1703 119.18 93.2103 119.17 90.2403C119.63 90.2203 120.08 90.2003 120.54 90.1703C120.54 90.5103 120.54 90.8503 120.54 91.1903C120.76 90.8103 121.05 90.5103 121.39 90.2903C121.74 90.0703 122.11 89.9503 122.5 89.9303C123 89.9203 123.46 90.0303 123.88 90.3003Z" fill="#FFF200"></path>
  <path d="M130.159 89.8802C130.559 90.1202 130.869 90.4402 131.089 90.8202C131.089 90.4002 131.089 89.9702 131.079 89.5502C131.539 89.5202 131.999 89.4902 132.459 89.4502C132.469 92.4102 132.489 95.3702 132.499 98.3302C132.499 99.1302 132.379 99.8602 132.129 100.51C131.879 101.16 131.509 101.69 131.029 102.09C130.549 102.49 129.969 102.73 129.299 102.78C128.409 102.86 127.659 102.64 127.069 102.13C126.479 101.62 126.139 100.88 126.049 99.9302C126.499 99.9002 126.949 99.8602 127.399 99.8302C127.509 100.28 127.729 100.63 128.069 100.89C128.409 101.14 128.819 101.25 129.289 101.21C129.839 101.16 130.279 100.9 130.619 100.43C130.959 99.9602 131.119 99.2902 131.119 98.4502C131.119 97.9602 131.119 97.4702 131.109 96.9902C130.879 97.4202 130.569 97.8002 130.179 98.1102C129.789 98.4202 129.339 98.6002 128.829 98.6402C128.259 98.6902 127.729 98.5302 127.249 98.1802C126.769 97.8302 126.399 97.3102 126.119 96.6302C125.839 95.9502 125.699 95.1702 125.699 94.2802C125.699 93.3902 125.829 92.6002 126.099 91.9002C126.369 91.2002 126.749 90.6502 127.219 90.2402C127.689 89.8302 128.219 89.6102 128.789 89.5702C129.309 89.5302 129.759 89.6402 130.159 89.8802ZM130.819 92.3702C130.629 91.9402 130.379 91.6202 130.079 91.4102C129.779 91.2002 129.449 91.1002 129.099 91.1302C128.749 91.1502 128.419 91.2902 128.119 91.5402C127.819 91.7902 127.569 92.1402 127.389 92.6002C127.199 93.0502 127.109 93.5902 127.119 94.1902C127.119 94.8002 127.219 95.3202 127.409 95.7702C127.599 96.2102 127.849 96.5502 128.159 96.7602C128.469 96.9802 128.789 97.0702 129.139 97.0402C129.489 97.0102 129.819 96.8702 130.119 96.6102C130.419 96.3502 130.669 95.9902 130.849 95.5302C131.029 95.0602 131.129 94.5302 131.119 93.9302C131.099 93.3202 131.009 92.8002 130.819 92.3702Z" fill="#FFF200"></path>
  <path d="M137.079 97.4901C136.629 97.2801 136.279 96.9501 136.019 96.5001C135.759 96.0501 135.629 95.5101 135.629 94.8801C136.119 94.8401 136.599 94.7901 137.089 94.7501C137.119 95.2201 137.269 95.5901 137.519 95.8701C137.769 96.1501 138.129 96.2701 138.579 96.2201C139.049 96.1701 139.419 95.9901 139.679 95.6701C139.939 95.3501 140.069 94.9501 140.069 94.4801C140.069 94.1201 139.979 93.8301 139.819 93.6101C139.649 93.4001 139.449 93.2401 139.209 93.1401C138.969 93.0401 138.629 92.9301 138.199 92.8301C137.659 92.6901 137.219 92.5401 136.879 92.3701C136.539 92.2101 136.249 91.9301 136.009 91.5401C135.769 91.1501 135.649 90.6101 135.639 89.9301C135.639 89.3001 135.749 88.7401 135.989 88.2501C136.229 87.7601 136.559 87.3701 136.989 87.0901C137.419 86.8001 137.919 86.6401 138.479 86.6001C139.279 86.5401 139.939 86.7501 140.459 87.2301C140.979 87.7101 141.259 88.4101 141.319 89.3201C140.819 89.3701 140.319 89.4101 139.819 89.4501C139.789 89.0601 139.649 88.7301 139.379 88.4701C139.119 88.2101 138.769 88.1001 138.339 88.1301C137.949 88.1601 137.629 88.3201 137.389 88.6001C137.139 88.8801 137.019 89.2701 137.019 89.7601C137.019 90.0901 137.099 90.3601 137.259 90.5701C137.419 90.7701 137.609 90.9201 137.849 91.0301C138.089 91.1301 138.419 91.2401 138.829 91.3501C139.379 91.5001 139.829 91.6601 140.179 91.8201C140.529 91.9901 140.819 92.2601 141.069 92.6501C141.309 93.0401 141.439 93.5701 141.439 94.2601C141.439 94.8101 141.329 95.3401 141.109 95.8501C140.889 96.3601 140.559 96.7901 140.119 97.1301C139.689 97.4701 139.179 97.6701 138.589 97.7301C138.029 97.7901 137.529 97.7101 137.079 97.4901Z" fill="white"></path>
  <path d="M143.46 96.6903C142.96 96.3803 142.56 95.9003 142.27 95.2603C141.98 94.6203 141.83 93.8603 141.83 92.9803C141.83 92.1103 141.97 91.3203 142.26 90.6203C142.55 89.9203 142.95 89.3603 143.46 88.9503C143.97 88.5403 144.54 88.3103 145.16 88.2503C145.79 88.1903 146.36 88.3103 146.87 88.6203C147.38 88.9303 147.78 89.4003 148.08 90.0303C148.38 90.6603 148.53 91.4103 148.53 92.2703C148.53 93.1303 148.39 93.9103 148.09 94.6103C147.79 95.3103 147.38 95.8803 146.86 96.3003C146.34 96.7303 145.77 96.9803 145.14 97.0503C144.52 97.1203 143.96 97.0003 143.46 96.6903ZM146.12 95.0803C146.42 94.8303 146.67 94.4803 146.86 94.0203C147.05 93.5703 147.14 93.0303 147.14 92.4203C147.14 91.8003 147.04 91.2903 146.86 90.8903C146.67 90.4803 146.43 90.1903 146.13 90.0003C145.83 89.8203 145.5 89.7403 145.15 89.7703C144.8 89.8003 144.48 89.9403 144.18 90.1903C143.88 90.4403 143.65 90.7803 143.47 91.2303C143.3 91.6803 143.21 92.2103 143.22 92.8303C143.22 93.7503 143.41 94.4403 143.77 94.9103C144.13 95.3703 144.59 95.5703 145.14 95.5103C145.49 95.4803 145.81 95.3303 146.12 95.0803Z" fill="white"></path>
  <path d="M150.43 84.9702C150.45 88.7302 150.47 92.5002 150.49 96.2602C150.04 96.3202 149.58 96.3702 149.13 96.4302C149.11 92.6502 149.09 88.8802 149.07 85.1002C149.52 85.0602 149.97 85.0202 150.43 84.9702Z" fill="white"></path>
  <path d="M157.399 87.0703C157.409 89.8203 157.429 92.5703 157.439 95.3203C156.989 95.3803 156.539 95.4503 156.079 95.5103C156.079 95.1803 156.079 94.8603 156.069 94.5303C155.859 94.9003 155.579 95.2103 155.229 95.4503C154.889 95.6903 154.519 95.8403 154.129 95.8903C153.609 95.9603 153.149 95.8903 152.739 95.6703C152.329 95.4503 152.009 95.0903 151.769 94.5803C151.529 94.0703 151.409 93.4403 151.409 92.6803C151.399 91.0403 151.389 89.3903 151.379 87.7503C151.829 87.7003 152.279 87.6503 152.729 87.6003C152.739 89.1503 152.749 90.7003 152.749 92.2603C152.749 93.0103 152.899 93.5603 153.199 93.9203C153.499 94.2803 153.899 94.4303 154.409 94.3603C154.919 94.2903 155.319 94.0403 155.619 93.6003C155.909 93.1603 156.059 92.5803 156.059 91.8303C156.049 90.2903 156.039 88.7503 156.039 87.2203C156.489 87.1803 156.949 87.1203 157.399 87.0703Z" fill="white"></path>
  <path d="M159.999 88.1402C160.009 89.6502 160.019 91.1602 160.019 92.6702C160.019 92.9802 160.079 93.1902 160.199 93.3102C160.309 93.4302 160.509 93.4702 160.789 93.4202C161.069 93.3802 161.339 93.3402 161.619 93.3002C161.619 93.7702 161.619 94.2402 161.629 94.7002C161.269 94.7502 160.919 94.8102 160.559 94.8602C159.949 94.9502 159.479 94.8402 159.159 94.5302C158.829 94.2202 158.669 93.6602 158.659 92.8602C158.649 91.3402 158.639 89.8302 158.639 88.3102C158.379 88.3402 158.119 88.3702 157.869 88.4102C157.869 87.9502 157.869 87.4802 157.859 87.0202C158.119 86.9902 158.379 86.9602 158.629 86.9302C158.629 86.2502 158.619 85.5702 158.619 84.8902C159.079 84.8402 159.529 84.7802 159.989 84.7302C159.989 85.4102 159.999 86.0902 159.999 86.7602C160.529 86.6902 161.059 86.6302 161.589 86.5602C161.589 87.0202 161.589 87.4802 161.599 87.9302C161.059 88.0002 160.529 88.0702 159.999 88.1402Z" fill="white"></path>
  <path d="M162.119 85.1002C161.949 84.9102 161.869 84.6702 161.869 84.3602C161.869 84.0502 161.949 83.7902 162.119 83.5602C162.289 83.3302 162.489 83.2102 162.739 83.1802C162.979 83.1502 163.179 83.2302 163.349 83.4202C163.519 83.6102 163.599 83.8502 163.599 84.1502C163.599 84.4502 163.519 84.7202 163.349 84.9402C163.179 85.1702 162.979 85.3002 162.749 85.3302C162.499 85.3602 162.289 85.2902 162.119 85.1002ZM163.409 86.3202C163.419 89.0202 163.439 91.7202 163.449 94.4102C162.999 94.4802 162.549 94.5502 162.099 94.6202C162.089 91.9102 162.069 89.2002 162.059 86.4902C162.509 86.4402 162.959 86.3802 163.409 86.3202Z" fill="white"></path>
  <path d="M165.62 93.6802C165.12 93.4102 164.73 92.9902 164.44 92.4002C164.15 91.8102 164.01 91.1002 164 90.2702C164 89.4502 164.14 88.7002 164.43 88.0202C164.72 87.3502 165.12 86.8002 165.62 86.3902C166.13 85.9802 166.69 85.7402 167.32 85.6502C167.94 85.5602 168.51 85.6502 169.02 85.9202C169.53 86.1802 169.93 86.6002 170.22 87.1802C170.51 87.7602 170.66 88.4402 170.67 89.2502C170.67 90.0502 170.53 90.7902 170.23 91.4602C169.93 92.1302 169.52 92.6802 169.01 93.1102C168.49 93.5402 167.92 93.8102 167.3 93.9102C166.68 94.0202 166.12 93.9402 165.62 93.6802ZM168.27 92.0202C168.57 91.7702 168.82 91.4302 169.01 90.9902C169.2 90.5602 169.29 90.0502 169.29 89.4802C169.29 88.9002 169.19 88.4302 169.01 88.0602C168.83 87.6902 168.58 87.4202 168.28 87.2702C167.98 87.1102 167.65 87.0602 167.31 87.1102C166.96 87.1602 166.64 87.3102 166.34 87.5502C166.04 87.8002 165.81 88.1302 165.64 88.5602C165.47 88.9902 165.38 89.5002 165.39 90.0802C165.39 90.9502 165.58 91.5902 165.94 92.0002C166.3 92.4202 166.76 92.5802 167.3 92.4902C167.64 92.4302 167.96 92.2702 168.27 92.0202Z" fill="white"></path>
  <path d="M175.9 84.7901C176.31 84.9801 176.62 85.3001 176.86 85.7601C177.09 86.2201 177.21 86.79 177.21 87.49C177.21 89 177.22 90.5101 177.22 92.0301C176.78 92.1101 176.33 92.2001 175.89 92.2801C175.89 90.8401 175.88 89.4001 175.88 87.9601C175.88 87.2701 175.73 86.7601 175.44 86.4401C175.15 86.1201 174.75 85.9901 174.24 86.0701C173.74 86.1501 173.34 86.4001 173.04 86.8201C172.74 87.2401 172.6 87.8001 172.6 88.5001C172.61 89.9601 172.61 91.4201 172.62 92.8801C172.17 92.9601 171.72 93.0401 171.27 93.1201C171.26 90.5001 171.25 87.8701 171.24 85.2501C171.69 85.1801 172.14 85.12 172.59 85.05C172.59 85.35 172.59 85.6501 172.59 85.9501C172.81 85.5901 173.09 85.3001 173.43 85.0701C173.77 84.8401 174.14 84.7001 174.52 84.6401C175.03 84.5501 175.49 84.6001 175.9 84.7901Z" fill="white"></path>
  <path d="M179.139 91.4502C178.729 91.3102 178.409 91.0802 178.169 90.7502C177.929 90.4202 177.809 90.0202 177.789 89.5602C178.249 89.4802 178.719 89.3902 179.179 89.3102C179.199 89.6302 179.339 89.8702 179.579 90.0502C179.819 90.2202 180.119 90.2702 180.479 90.2002C180.859 90.1302 181.149 89.9902 181.359 89.7802C181.569 89.5702 181.669 89.3302 181.669 89.0702C181.669 88.7902 181.549 88.6002 181.319 88.5102C181.089 88.4202 180.719 88.3302 180.219 88.2602C179.729 88.1902 179.329 88.1102 179.029 88.0202C178.719 87.9302 178.459 87.7502 178.229 87.4802C178.009 87.2102 177.889 86.8302 177.889 86.3302C177.889 85.9202 177.989 85.5302 178.189 85.1602C178.389 84.7902 178.689 84.4702 179.069 84.2202C179.449 83.9602 179.889 83.8002 180.389 83.7202C181.129 83.6002 181.729 83.7202 182.179 84.0702C182.629 84.4302 182.879 84.9702 182.909 85.7102C182.459 85.7902 182.009 85.8702 181.559 85.9502C181.539 85.6202 181.419 85.3702 181.199 85.2002C180.989 85.0402 180.699 84.9802 180.339 85.0402C179.989 85.1002 179.709 85.2202 179.529 85.4102C179.339 85.6002 179.249 85.8202 179.249 86.0802C179.249 86.2802 179.309 86.4402 179.439 86.5602C179.569 86.6802 179.719 86.7602 179.899 86.8002C180.079 86.8502 180.349 86.9002 180.699 86.9502C181.169 87.0102 181.559 87.0902 181.859 87.1902C182.159 87.2802 182.429 87.4602 182.649 87.7102C182.869 87.9602 182.979 88.3202 182.989 88.8002C182.989 89.2302 182.889 89.6302 182.689 90.0002C182.489 90.3802 182.199 90.7002 181.819 90.9602C181.449 91.2302 181.009 91.4102 180.509 91.5102C180.009 91.6102 179.549 91.5902 179.139 91.4502Z" fill="white"></path>
  <path d="M4.01976 12.6401C4.02976 21.3601 4.02976 30.0401 4.03976 38.7601C5.42976 38.5301 6.70977 38.3401 8.10977 38.1401C8.10977 40.3201 8.10977 42.3601 8.11977 44.5301C5.72977 44.6801 3.40976 44.8401 1.01976 45.0301C1.01976 34.8101 1.00977 24.6201 1.00977 14.4001C2.03977 13.7701 2.95976 13.2301 4.01976 12.6401Z" fill="black"></path>
  <path d="M21.7 37.39C19.28 37.55 16.99 37.72 14.58 37.93C14.21 40.1 13.87 42.14 13.5 44.31C11.94 44.37 10.56 44.43 9 44.5C11.18 32.38 13.3 20.27 15.43 8.13998C17.27 7.60998 18.97 7.15996 20.83 6.70996C23.32 19.09 25.79 31.46 28.3 43.84C26.45 43.89 24.75 43.93 22.9 43.98C22.49 41.73 22.1 39.63 21.7 37.39ZM18.06 17.29C17.29 21.89 16.53 26.42 15.76 31.02C17.39 30.81 18.83 30.64 20.46 30.46C19.65 26.05 18.86 21.7 18.06 17.29Z" fill="black"></path>
  <path d="M42.3093 43.57C38.4393 43.63 34.6493 43.69 30.7793 43.77C30.7993 30.73 30.8093 17.72 30.8293 4.68998C33.7693 4.20998 36.6593 3.80997 39.6093 3.45997C41.3593 3.26997 43.2393 2.89996 44.9793 3.35996C48.8393 4.23996 50.7393 8.12998 50.9393 11.75C51.2493 15.79 50.0793 20.64 46.1393 22.62C47.9093 23.06 49.2393 24.45 50.0993 25.98C52.0093 29.49 52.0393 33.89 50.7093 37.6C49.4293 41.16 46.1993 43.59 42.3093 43.57ZM40.7293 11.19C39.2893 11.33 38.0993 11.45 36.6693 11.61C36.6693 14.43 36.6593 17.14 36.6593 19.95C37.7093 19.86 38.5793 19.79 39.6093 19.71C40.7193 19.65 42.0893 19.59 42.8893 18.69C44.0593 17.46 44.1393 15.49 43.9193 13.91C43.6893 12.22 42.5293 10.96 40.7293 11.19ZM41.1393 26.76C39.5793 26.85 38.1893 26.93 36.6393 27.03C36.6393 30 36.6293 32.86 36.6293 35.83C37.8693 35.78 38.9593 35.74 40.1793 35.7C41.2993 35.69 42.6293 35.65 43.4493 34.77C44.3893 33.83 44.6293 32.46 44.6393 31.15C44.6993 29 43.6793 26.58 41.1393 26.76Z" fill="black"></path>
  <path d="M76.7094 9.39017C72.3494 9.47017 68.0594 9.58014 63.7094 9.74014C63.7094 12.5901 63.6994 15.3402 63.6994 18.1902C67.5294 18.0802 71.2894 18.0002 75.1294 17.9402C75.1294 20.6202 75.1294 23.1801 75.1294 25.8601C71.2894 25.9101 67.5294 25.9701 63.6894 26.0501C63.6894 29.1401 63.6794 32.1301 63.6794 35.2101C68.0494 35.1501 72.3394 35.1101 76.7194 35.0801C76.7194 37.8501 76.7194 40.5301 76.7194 43.3001C69.7494 43.3201 62.8294 43.3602 55.8594 43.4202C55.8894 29.6102 55.9094 15.8202 55.9394 2.01016C62.8694 1.57016 69.7694 1.32017 76.7194 1.17017C76.7094 3.94017 76.7094 6.62017 76.7094 9.39017Z" fill="black"></path>
  <path d="M92.6502 0.98999C92.6802 12.44 92.7102 23.87 92.7402 35.32C97.2002 35.32 101.58 35.32 106.04 35.34C106.04 38.03 106.05 40.59 106.05 43.28C98.2802 43.27 90.5502 43.27 82.7802 43.29C82.7702 29.21 82.7602 15.15 82.7402 1.07001C86.0802 1.02001 89.3202 0.99999 92.6502 0.98999Z" fill="black"></path>
  <path d="M123.199 43.7601C114.499 43.7401 107.719 38.5801 107.539 30.6701C111.119 30.6901 114.599 30.73 118.169 30.77C118.299 32.6 119.139 34.5601 121.149 35.2901C122.339 35.7201 123.809 35.7101 124.989 35.2801C127.139 34.5101 127.719 32.0701 127.039 30.2601C126.379 28.5601 124.529 27.6001 122.789 26.8701C120.469 25.9201 118.009 25.2001 115.729 24.1701C111.209 22.2301 108.109 19.0701 107.729 14.4801C107.399 11.2301 108.139 7.73007 110.539 5.17007C113.089 2.40007 117.159 0.920056 121.149 0.970056C130.389 0.730056 135.569 5.98005 135.869 13.96C132.729 13.8 129.709 13.6801 126.569 13.5701C126.499 11.9901 125.779 10.3501 124.179 9.57006C121.149 8.23006 118.179 9.64006 118.269 12.7901C118.199 15.0901 120.499 16.52 122.589 17.43C126.969 19.34 132.199 20.79 134.649 24.86C136.519 27.95 136.599 31.7701 135.709 35.1401C134.219 40.5601 129.489 43.8701 123.199 43.7601Z" fill="black"></path>
  <path d="M148.98 3.80014C148.93 15.6701 148.87 27.5102 148.82 39.3902C151.75 39.4702 154.56 39.5501 157.48 39.6501C157.47 41.0801 157.47 42.3401 157.46 43.7701C153.39 43.6901 149.41 43.6202 145.33 43.5702C145.39 30.1802 145.45 16.8102 145.5 3.42017C146.73 3.54017 147.75 3.66014 148.98 3.80014Z" fill="black"></path>
  <path d="M172.599 36.13C169.689 35.9 166.889 35.7 163.969 35.51C163.379 38.33 162.819 41.05 162.219 43.87C161.119 43.84 160.319 43.83 159.209 43.8C161.869 31.53 164.469 19.27 167.059 6.97998C168.109 7.20998 168.979 7.40997 170.029 7.65997C172.209 19.86 174.359 32.04 176.549 44.24C175.639 44.21 174.969 44.19 174.059 44.17C173.569 41.46 173.089 38.85 172.599 36.13ZM168.519 13.25C167.269 19.37 166.029 25.44 164.769 31.57C167.199 31.77 169.499 31.99 171.919 32.24C170.789 25.89 169.659 19.59 168.519 13.25Z" fill="black"></path>
  <path d="M183.42 44.5401C182.03 44.4701 180.72 44.4001 179.32 44.3401C179.35 32.9201 179.37 21.5201 179.4 10.1001C180.53 10.6501 181.58 11.2101 182.7 11.8201C183.92 12.3701 184.84 13.4101 185.49 15.1201C186.81 18.1901 187.38 26.5501 184.79 28.3501C187.64 31.1801 187.8 44.6101 183.42 44.5401ZM183.18 15.5901C182.36 15.1701 181.67 14.8301 180.84 14.4401C180.83 18.1001 180.83 21.6701 180.82 25.3301C181.45 25.5301 181.96 25.6901 182.56 25.9001C183.49 26.2801 184.3 26.4801 184.82 24.9401C185.23 23.6601 185.25 22.0601 185.18 20.6301C185.07 18.6001 184.53 16.2901 183.18 15.5901ZM183.27 29.6201C182.4 29.3701 181.69 29.1701 180.82 28.9401C180.81 32.9201 180.8 36.8101 180.8 40.7901C181.46 40.8601 182 40.9101 182.64 40.9801C183.74 41.1801 184.51 41.0601 185.06 39.3701C185.89 36.6001 185.64 30.4001 183.27 29.6201Z" fill="black"></path>
</svg>
